<svg xmlns="http://www.w3.org/2000/svg" viewBox="0 0 16 16">
	<path
		d="M9.47 8.53c1.9.33 4.15 1.23 4.15 2.69v2.12H4.9l-2.17 2.28-.73-.69v-.01L13.9 2.33l.73.69-5.16 5.51zm3.15 3.81v-1.12c0-.72-2.09-1.62-3.99-1.8l-2.78 2.92h6.77zm-5.08-4.7a2.833 2.833 0 0 1-2.43-2.8C5.11 3.27 6.38 2 7.95 2c1.35 0 2.48.94 2.76 2.2l-.99 1.11c.05-.15.07-.31.07-.47C9.79 3.82 8.96 3 7.95 3c-1.01 0-1.84.82-1.84 1.84a1.84 1.84 0 0 0 2.46 1.72L7.54 7.64zm-4.26 3.58v.9l-1 1.05v-1.95c0-1.54 2.5-2.45 4.45-2.74L5.51 9.77c-1.24.37-2.23.95-2.23 1.45z"/>
</svg>
