<svg xmlns="http://www.w3.org/2000/svg" viewBox="0 0 969.2 386.94">
	<path class="cls-1"
		  d="M903,57.58A33.13,33.13,0,1,1,936.07,90.4C917.72,90.4,903,76.23,903,57.58Zm61.62-.15c0-16.71-12.08-28.94-28.5-28.94-16.26,0-28.49,12.38-28.49,29.09,0,16.86,12.53,28.65,28.49,28.65C952.19,86.23,964.57,74.14,964.57,57.43ZM925,39.82h11.19c7.46,0,12.39,3.29,12.39,10V50c0,5.22-3,8.06-7.61,9.1l9.7,14.77h-6.12L935.48,60h-4.93V73.84H925Zm11,16c4.78,0,7.17-1.94,7.17-5.67V50c0-4.18-2.54-5.82-7.17-5.82h-5.52V55.79Z"/>
	<path class="cls-1" d="M792.15,320.28h68.12V29.41H792.15Zm16.74-275.7h34.64V305.11H808.89Z"/>
	<path class="cls-1"
		  d="M662.62,203.28c0-63.93-33.3-105.24-84.84-105.24-20.13,0-38.36,6.35-51.33,17.88l-.21.18-.41.36-.27.25-.14-.91-2.31-14.62h-63.9V386.94h68.12V320.1l.25.06.37.09.18,0c.13,0,13,3.12,24.55,3.12,33.36,0,61.21-11.25,80.55-32.53S662.62,239.43,662.62,203.28Zm-152,168.49H476V116.35h33l0,.17,0,.26,1.59,11.13V371.77Zm56.69-72.94c-6.56,5.33-14.59,7.93-24.55,7.93a73.83,73.83,0,0,1-14.88-1.67l-.12,0-.24-.05-.16,0V134.74l.07-.06.1-.09,0,0c8.6-7.37,19.8-12.32,27.88-12.32,12,0,20.38,7.29,25.76,22.3,5.27,14.69,7.83,37.5,7.83,69.73,0,22.5-1.6,40-4.91,53.57C580.57,282.34,575.07,292.48,567.28,298.83Zm55.87-21c-15,18.77-32.77,25.89-42.06,28.46l-.67.19-1.36.37-.9.25.72-.6,1.08-.89.55-.45c16.47-13.61,25.68-46.73,25.25-90.87-.21-30.14-2.63-51.68-7.62-67.8-5.35-17.29-13.89-28.53-26.13-34.36l-.57-.28-1.15-.55-.77-.36.85,0,1.27,0h2c17.84,0,33.79,6.4,46.12,18.51,16.88,16.58,26.18,42.83,26.18,73.92C645.89,233.79,638.23,258.87,623.15,277.8Z"/>
	<path class="cls-1" d="M689.8,320.28h67.33V101.18H689.8Zm16.74-203.93h33.85V304.71H706.54Z"/>
	<path class="cls-1"
		  d="M356.47,280l0,.05-.05.08c-7.64,11.25-18.4,18-28.8,18-9.07,0-15.52-2.62-19.73-8s-6.41-14.15-6.41-26.38V101.57H232.16V257.4c0,20.88,5.81,37.3,17.26,48.8,11.63,11.68,28.43,17.61,49.93,17.61,22.66,0,42-7.4,56-21.38l.26-.26.51-.51.34-.34v19.35h68.9V101.57h-68.9Zm-45.38,29.14-1.22.21-.6.11a74,74,0,0,1-12.48,1.12c-12.44,0-22.92-3.52-31.14-10.44-11-9.23-16.75-24-16.75-42.69V116.74h35.81V263.67c0,11.92,2.16,21.83,6.43,29.44a31.23,31.23,0,0,0,18.21,15l.59.19,1.17.37.79.25Zm62.12-192.35h35.42V305.5H373.21Z"/>
	<path class="cls-1"
		  d="M722.88,0C699,0,682.35,16,682.35,39c0,11.75,3.9,21.87,11.28,29.25s17.5,11.28,29.25,11.28c23.48,0,40.53-17,40.53-40.53C763.41,16.38,746.36,0,722.88,0Zm0,63.53c-14.24,0-24.18-10.1-24.18-24.57a23.07,23.07,0,0,1,6.81-16.69,25.84,25.84,0,0,1,34.74,0A23.07,23.07,0,0,1,747.06,39C747.06,53.43,737.12,63.53,722.88,63.53Z"/>
	<path class="cls-1"
		  d="M210.47,131.12c0-29.56-8.4-52.92-25-69.41-10.57-10.52-24.71-18.51-42-23.74-17.11-5.16-37.82-7.78-61.55-7.78H0V320.28H70.86V230.86h2.39c54.17,0,91.18-10.63,113.13-32.48a76.81,76.81,0,0,0,18.1-28.82C208.45,158.46,210.47,145.52,210.47,131.12ZM54.12,304.71H16.74V45.76H54.12ZM103,211.93c-7.89,2.3-17.9,3.37-31.51,3.37h-.65V45.76h.65c23.18,0,40.78,2.74,51.3,16.13,9.43,12,13.27,32.06,13.27,69.23,0,36.5-3.8,56.21-13.13,68C118.17,205.24,111.65,209.41,103,211.93Zm30.21-1-.53.13-1.07.26-.72.18.53-.52.79-.77.4-.38c9.39-9.14,20.58-30.23,20.58-78.75,0-39.5-6.74-65.78-20.6-80.34l-.36-.38-.72-.75-.48-.5.67.17,1,.25.51.13c39.32,10,60.1,38.17,60.1,81.42S173.12,201.18,133.23,211Z"/>
</svg>